<svg class="main-svg" xmlns="http://www.w3.org/2000/svg" xmlns:xlink="http://www.w3.org/1999/xlink" width="700" height="500" style="" viewBox="0 0 700 500"><rect x="0" y="0" width="700" height="500" style="fill: rgb(255, 255, 255); fill-opacity: 1;"/><defs id="defs-9d7134"><g class="clips"><clipPath id="clip9d7134polar-for-traces"><path d="M160,0A160,160 0,1,0 -160,-1.9594348786357652e-14A160,160 0,1,0 160,3.9188697572715304e-14Z" transform="translate(160,160)"/></clipPath></g><g class="gradients"/></defs><g class="bglayer"/><g class="layer-below"><g class="imagelayer"/><g class="shapelayer"/></g><g class="cartesianlayer"/><g class="polarlayer"><g class="polar"><g class="polarsublayer draglayer"/><g class="polarsublayer plotbg"><path d="M160,0A160,160 0,1,0 -160,-1.9594348786357652e-14A160,160 0,1,0 160,3.9188697572715304e-14Z" transform="translate(308,260)" style="fill: rgb(229, 236, 246); fill-opacity: 1;"/></g><g class="polarsublayer backplot"><g class="maplayer"/></g><g class="polarsublayer angular-grid" style="fill: none;"><path class="angularaxisgrid" d="M308,260L468,260" style="stroke: rgb(255, 255, 255); stroke-opacity: 1; stroke-width: 1px;"/><path class="angularaxisgrid" d="M308,260L421.1370849898476,146.8629150101524" style="stroke: rgb(255, 255, 255); stroke-opacity: 1; stroke-width: 1px;"/><path class="angularaxisgrid" d="M308,260L308,100" style="stroke: rgb(255, 255, 255); stroke-opacity: 1; stroke-width: 1px;"/><path class="angularaxisgrid" d="M308,260L194.8629150101524,146.8629150101524" style="stroke: rgb(255, 255, 255); stroke-opacity: 1; stroke-width: 1px;"/><path class="angularaxisgrid" d="M308,260L148,260" style="stroke: rgb(255, 255, 255); stroke-opacity: 1; stroke-width: 1px;"/><path class="angularaxisgrid" d="M308,260L194.86291501015236,373.1370849898476" style="stroke: rgb(255, 255, 255); stroke-opacity: 1; stroke-width: 1px;"/><path class="angularaxisgrid" d="M308,260L307.99999999999994,420" style="stroke: rgb(255, 255, 255); stroke-opacity: 1; stroke-width: 1px;"/><path class="angularaxisgrid" d="M308,260L421.1370849898476,373.1370849898476" style="stroke: rgb(255, 255, 255); stroke-opacity: 1; stroke-width: 1px;"/></g><g class="polarsublayer radial-grid" transform="translate(308,260)" style="fill: none;"><path class="xgrid" d="M18.52,0A18.52,18.52 0,1,0 -18.52,-2.268045872020898e-15A18.52,18.52 0,1,0 18.52,4.536091744041796e-15Z" style="stroke: rgb(255, 255, 255); stroke-opacity: 1; stroke-width: 1px;"/><path class="xgrid" d="M40.42,0A40.42,40.42 0,1,0 -40.42,-4.9500223621536016e-15A40.42,40.42 0,1,0 40.42,9.900044724307203e-15Z" style="stroke: rgb(255, 255, 255); stroke-opacity: 1; stroke-width: 1px;"/><path class="xgrid" d="M62.32,0A62.32,62.32 0,1,0 -62.32,-7.631998852286305e-15A62.32,62.32 0,1,0 62.32,1.526399770457261e-14Z" style="stroke: rgb(255, 255, 255); stroke-opacity: 1; stroke-width: 1px;"/><path class="xgrid" d="M84.22,0A84.22,84.22 0,1,0 -84.22,-1.0313975342419009e-14A84.22,84.22 0,1,0 84.22,2.0627950684838017e-14Z" style="stroke: rgb(255, 255, 255); stroke-opacity: 1; stroke-width: 1px;"/><path class="xgrid" d="M106.12,0A106.12,106.12 0,1,0 -106.12,-1.2995951832551712e-14A106.12,106.12 0,1,0 106.12,2.5991903665103425e-14Z" style="stroke: rgb(255, 255, 255); stroke-opacity: 1; stroke-width: 1px;"/><path class="xgrid" d="M128.02,0A128.02,128.02 0,1,0 -128.02,-1.5677928322684418e-14A128.02,128.02 0,1,0 128.02,3.1355856645368836e-14Z" style="stroke: rgb(255, 255, 255); stroke-opacity: 1; stroke-width: 1px;"/><path class="xgrid" d="M149.92,0A149.92,149.92 0,1,0 -149.92,-1.8359904812817117e-14A149.92,149.92 0,1,0 149.92,3.6719809625634234e-14Z" style="stroke: rgb(255, 255, 255); stroke-opacity: 1; stroke-width: 1px;"/></g><g class="polarsublayer frontplot" transform="translate(148,100)" clip-path="url('#clip9d7134polar-for-traces')"><g class="barlayer"><g class="trace bars" style="opacity: 0.8;"><g class="points"><g class="point" style="vector-effect: non-scaling-stroke; stroke-miterlimit: 2;"><path d="M168.10679567473238,165.99871324251126L280.5103020240224,249.17293263770335A149.9151253514117,149.9151253514117 0,0,0 280.5103020240224,70.82706736229665L168.10679567473238,154.00128675748874A10.084874648588318,10.084874648588318 0,0,1 168.10679567473238,165.99871324251126Z" style="opacity: 1; stroke-width: 0.5px; fill: rgb(171, 99, 250); fill-opacity: 1; stroke: rgb(229, 236, 246); stroke-opacity: 1;"/></g></g></g><g class="trace bars" style="opacity: 0.6;"><g class="points"><g class="point" style="vector-effect: non-scaling-stroke; stroke-miterlimit: 2;"><path d="M168.10679567473238,165.99871324251126L280.5103020240224,249.17293263770335A149.9151253514117,149.9151253514117 0,0,0 280.5103020240224,70.82706736229665L168.10679567473238,154.00128675748874A10.084874648588318,10.084874648588318 0,0,1 168.10679567473238,165.99871324251126Z" style="opacity: 1; stroke-width: 0.5px; fill: rgb(255, 161, 90); fill-opacity: 1; stroke: rgb(229, 236, 246); stroke-opacity: 1;"/></g></g></g></g><g class="scatterlayer"><g class="trace scatter tracefa53e0" style="stroke-miterlimit: 2; opacity: 1;"><g class="fills"/><g class="errorbars"/><g class="lines"><path class="js-line" d="M302.8,160L306.24,157.45L309.03,154.8L308.71,152.21L309.55,149.54L307.55,147.09L307.49,144.5L307.23,141.92L306.45,139.42L303.31,137.3L305.06,134.42L304.22,131.97L303.27,129.55L302.38,127.13L301.27,124.78L300.82,122.27L299.03,120.13L298,117.81L294.96,116.15L295.82,113.23L293.8,111.3L291.45,109.54L289.95,107.5L288.62,105.4L286.7,103.59L285.52,101.47L281.87,100.56L281.85,97.91L279.59,96.41L278.55,94.29L275.85,93.11L273.86,91.59L270.8,90.76L269.69,88.77L267.15,87.72L264.86,86.57L263.08,85.11L261.68,83.38L258.78,82.83L256.02,82.24L254.73,80.51L251.64,80.34L249.02,79.85L247.61,78.3L244.54,78.36L242.84,77.16L240.28,76.87L238.27,76.07L235.46,76.19L234.11,74.74L231.02,75.37L228.7,75.16L226.36,75.06L224.14,74.89L221.95,74.73L220.13,74.13L217.35,74.98L215.01,75.29L212.81,75.48L211.36,74.52L208.98,75.16L206.29,76.5L204.42,76.46L202.06,77.45L199.72,78.56L198.5,77.44L196.14,78.82L193.89,80.15L192.48,79.6L190.27,81.15L188.18,82.57L187,81.58L185.48,81.57L183.41,83.43L181.77,84.09L180.07,85.11L178.07,87.52L176.72,87.57L174.96,89.6L173.3,91.57L172.08,91.47L170.86,91.43L169.42,92.98L168,94.81L166.94,94.01L165.66,95.27L164.33,98.03L163.29,97.14L162.14,98.59L161,102.65L160,104.09L159.05,105.76L158.17,107.7L157.34,109.15L156.49,109.81L155.53,108.9L154.67,109.32L153.99,111.09L153.43,113.28L152.88,115.07L152.18,115.65L151.7,117.32L150.83,116.85L150.84,120.31L150.09,120.26L149.28,119.98L148.35,119.37L148.55,122.55L147.99,123.04L147.75,124.44L147.95,126.9L148.14,129.1L147.61,129.33L147.51,130.57L146.92,130.63L146.63,131.32L146.68,132.69L147.16,134.81L146.53,134.67L146.81,136.2L146.67,136.91L145.33,135.58L146.66,138.66L147.51,140.77L146.84,140.5L146.14,140.21L145.72,140.35L146.3,141.82L145.97,142.04L146.06,142.79L147,144.51L146.33,144.27L146.23,144.71L148.13,147.27L147.61,147.17L147.16,147.16L146.53,146.99L147.65,148.49L147.9,149.11L147.31,148.97L147.73,149.71L148.31,150.54L147.9,150.55L147.49,150.57L147.48,150.9L146.3,150.4L148.37,152.16L148.62,152.61L148.31,152.7L147.94,152.75L148.71,153.48L147.38,153L147.6,153.41L147.78,153.77L147.46,153.89L147.88,154.35L149.6,155.37L147.83,154.84L149.3,155.68L149.27,155.88L148.49,155.81L148.72,156.12L150.41,156.88L148.7,156.54L146.13,156.02L148.49,156.92L148.72,157.19L146.93,156.98L147.61,157.37L148.81,157.83L148.34,157.94L149.33,158.31L148.77,158.42L149.72,158.74L148.1,158.75L149.18,159.05L147.78,159.15L149.45,159.45L149.29,159.63L148.63,159.8L147.55,160L148.92,160.19L147.06,160.45L147.12,160.68L147.8,160.85L148.43,161.01L147.65,161.3L149.45,161.3L149.17,161.52L149.11,161.73L148.39,162.05L147.98,162.34L148.6,162.42L147.78,162.82L148.32,162.91L147.55,163.34L147.71,163.53L147.49,163.83L147.62,164.02L147.59,164.27L147.41,164.58L147.46,164.81L146.64,165.4L147.47,165.32L148.26,165.23L147.97,165.61L147.6,166.05L146.93,166.66L147.18,166.82L147.75,166.79L147.9,166.99L147.45,167.54L147.19,168L147.54,168.09L147.54,168.4L147.65,168.65L147.57,169.03L147.73,169.24L146.89,170.24L147.64,170.01L147.4,170.57L147.95,170.48L147.07,171.64L146.82,172.29L147.83,171.75L148.25,171.75L147.92,172.51L148.63,172.19L147.12,174.3L146.98,174.98L146.64,175.92L145.6,177.79L145.82,178.15L145.91,178.7L146.11,179.12L145.81,180.27L146.19,180.47L146.31,181.08L146.4,181.77L146.57,182.36L146.84,182.8L147.1,183.27L147.05,184.35L148.73,182.11L148.75,183.07L149.26,183.04L149.06,184.58L148.7,186.61L148.79,187.75L148.99,188.68L149.08,190L149.7,189.92L149.63,191.92L149.81,193.34L150.47,193.24L150.51,195.4L151.29,194.94L151.64,196.19L151.45,200.23L152.16,200.31L152.77,200.98L153.03,204.01L153.85,203.79L154.33,206.14L154.79,209.57L155.79,208.07L156.45,210.76L157.37,210.09L158.2,211.67L159.09,212.26L160,213L160.92,212.84L161.89,214.03L162.91,215.44L164.21,220.21L165.28,220.3L166.67,223.44L167.85,223.95L169.26,225.92L170.84,228.41L172,228.04L173.64,230.17L175.01,230.6L176.78,232.67L177.76,231.24L179.45,232.57L181.41,234.67L183.34,236.33L184.5,235.41L186.41,236.71L188.74,238.97L191.7,242.58L193.15,242.04L196.1,245.05L196.8,242.66L199.12,243.9L200.84,243.74L203.18,244.75L205.83,246.19L207.69,246.04L209.91,246.45L211.91,246.4L214,246.42L215.59,245.6L218.34,246.5L219.81,245.41L222.89,246.56L224.44,245.51L227.66,246.6L229.51,245.83L231.82,245.59L234.36,245.54L236.79,245.29L238.57,244.26L241.22,244.11L242.8,242.8L246.62,243.64L248.43,242.46L249.95,240.99L253.32,241.12L255.39,240.04L257.08,238.61L260.1,238.21L263.45,237.96L265.75,236.83L267.75,235.44L268.94,233.48L269.12,230.87L270.7,229.18L273.68,228.3L277.55,227.87L277.28,225.01L278.27,222.88L280.15,221.22L281.96,219.48L282.92,217.32L285.86,216.04L287.21,214L288.64,211.97L289.79,209.82L291.37,207.81L292.33,205.56L293.45,203.36L294.12,201L292.78,198.07L296.31,196.52L298,194.41L298.52,191.98L299.49,189.65L300.18,187.25L300.47,184.77L300.85,182.31L301.4,179.87L301.02,177.31L302.26,174.95L302.46,172.46L302.97,170L303.85,167.54L304.31,165.04L304.18,162.52L303.71,160" style="vector-effect: non-scaling-stroke; fill: none; stroke: rgb(99, 110, 250); stroke-opacity: 1; stroke-width: 2px; opacity: 1;"/></g><g class="points"/><g class="text"/></g><g class="trace scatter tracea7f150" style="stroke-miterlimit: 2; opacity: 1;"><g class="fills"/><g class="errorbars"/><g class="lines"><path class="js-line" d="M312.88,160L316.33,157.27L319.1,154.44L318.78,151.68L319.61,148.84L317.6,146.21L317.52,143.44L317.23,140.69L316.44,138.01L313.27,135.72L314.99,132.67L314.12,130.04L313.14,127.45L312.2,124.86L311.05,122.34L310.56,119.66L308.72,117.35L307.64,114.86L304.55,113.03L305.36,109.95L303.28,107.85L300.87,105.93L299.3,103.72L297.91,101.46L295.92,99.49L294.66,97.21L290.93,96.14L290.83,93.34L288.49,91.68L287.37,89.4L284.58,88.07L282.5,86.39L279.36,85.42L278.15,83.27L275.51,82.08L273.12,80.79L271.24,79.18L269.73,77.31L266.72,76.62L263.86,75.89L262.45,74.03L259.25,73.73L256.51,73.1L254.99,71.42L251.8,71.35L249.98,70.02L247.28,69.61L245.14,68.69L242.21,68.69L240.73,67.13L237.5,67.64L235.05,67.33L232.57,67.11L230.21,66.83L227.88,66.58L225.91,65.87L222.99,66.62L220.5,66.83L218.16,66.93L216.55,65.88L214.02,66.43L211.18,67.67L209.16,67.55L206.64,68.46L204.14,69.49L202.76,68.3L200.24,69.61L197.83,70.87L196.26,70.25L193.88,71.74L191.63,73.1L190.28,72.05L188.6,71.98L186.36,73.78L184.55,74.39L182.68,75.37L180.51,77.73L178.99,77.74L177.06,79.74L175.23,81.67L173.83,81.54L172.44,81.47L170.82,82.99L169.23,84.8L167.99,83.98L166.54,85.22L165.04,87.97L163.82,87.07L162.5,88.51L161.18,92.57L160,94L158.88,95.67L157.82,97.62L156.81,99.08L155.79,99.74L154.65,98.85L153.62,99.29L152.77,101.08L152.03,103.3L151.31,105.11L150.43,105.72L149.78,107.42L148.73,106.99L148.57,110.48L147.65,110.48L146.67,110.24L145.57,109.68L145.6,112.91L144.87,113.45L144.47,114.9L144.5,117.42L144.53,119.69L143.83,119.98L143.57,121.29L142.82,121.42L142.37,122.18L142.26,123.63L142.58,125.82L141.8,125.77L141.92,127.38L141.63,128.17L140.13,126.94L141.32,130.11L142.02,132.31L141.2,132.13L140.36,131.95L139.8,132.19L140.23,133.77L139.76,134.09L139.71,134.95L140.52,136.79L139.71,136.66L139.49,137.22L141.25,139.9L140.6,139.91L140.03,140.03L139.28,139.99L140.28,141.61L140.41,142.36L139.7,142.35L140.01,143.22L140.47,144.19L139.96,144.34L139.44,144.5L139.32,144.98L138.04,144.62L140.01,146.52L140.16,147.12L139.76,147.35L139.29,147.56L139.98,148.44L138.56,148.11L138.7,148.67L138.79,149.19L138.4,149.47L138.74,150.08L140.39,151.27L138.55,150.89L139.94,151.9L139.85,152.27L139.01,152.36L139.18,152.83L140.82,153.77L139.05,153.6L136.43,153.24L138.75,154.31L138.93,154.75L137.1,154.71L137.74,155.27L138.91,155.9L138.41,156.19L139.37,156.73L138.79,157.02L139.71,157.51L138.07,157.7L139.13,158.17L137.72,158.44L139.38,158.92L139.21,159.27L138.54,159.63L137.46,160L138.83,160.37L136.98,160.8L137.05,161.2L137.73,161.56L138.39,161.89L137.62,162.35L139.44,162.52L139.18,162.93L139.15,163.3L138.46,163.8L138.08,164.26L138.73,164.52L137.95,165.09L138.54,165.35L137.81,165.95L138.01,166.3L137.84,166.77L138.03,167.14L138.06,167.56L137.93,168.03L138.04,168.43L137.29,169.17L138.19,169.26L139.04,169.33L138.83,169.87L138.54,170.47L137.94,171.24L138.28,171.55L138.93,171.68L139.17,172.03L138.8,172.74L138.64,173.35L139.08,173.59L139.18,174.04L139.38,174.44L139.41,174.96L139.68,175.31L138.94,176.45L139.81,176.35L139.67,177.06L140.34,177.09L139.58,178.39L139.44,179.17L140.58,178.76L141.12,178.88L140.91,179.77L141.75,179.57L140.37,181.8L140.36,182.59L140.16,183.65L139.25,185.62L139.61,186.1L139.84,186.76L140.18,187.27L140.02,188.53L140.55,188.83L140.82,189.54L141.05,190.32L141.37,191L141.8,191.53L142.21,192.09L142.32,193.26L144.16,191.1L144.33,192.13L144.99,192.18L144.96,193.79L144.76,195.89L145.01,197.1L145.38,198.09L145.63,199.48L146.41,199.46L146.51,201.51L146.86,202.99L147.69,202.94L147.9,205.14L148.85,204.72L149.38,206.02L149.35,210.09L150.24,210.21L151.02,210.91L151.45,213.97L152.44,213.77L153.11,216.15L153.74,219.6L154.92,218.12L155.75,220.83L156.85,220.16L157.84,221.75L158.91,222.34L160,223.09L161.1,222.93L162.24,224.11L163.43,225.51L164.91,230.27L166.15,230.35L167.72,233.47L169.08,233.96L170.67,235.91L172.41,238.38L173.75,237.97L175.56,240.07L177.1,240.47L179.05,242.49L180.2,241.03L182.06,242.31L184.19,244.37L186.29,245.97L187.62,245L189.7,246.24L192.19,248.44L195.31,252L196.93,251.39L200.04,254.34L200.9,251.87L203.38,253.04L205.26,252.8L207.76,253.74L210.56,255.09L212.58,254.86L214.96,255.19L217.11,255.04L219.35,254.98L221.08,254.06L223.98,254.86L225.59,253.67L228.81,254.71L230.51,253.56L233.86,254.54L235.85,253.67L238.3,253.32L240.98,253.15L243.54,252.78L245.45,251.63L248.23,251.36L249.93,249.93L253.87,250.65L255.8,249.34L257.45,247.74L260.93,247.74L263.11,246.52L264.91,244.96L268.05,244.42L271.5,244.02L273.9,242.76L276.01,241.23L277.3,239.12L277.58,236.36L279.26,234.52L282.32,233.5L286.29,232.91L286.1,229.9L287.17,227.62L289.13,225.8L291.02,223.9L292.06,221.58L295.08,220.14L296.49,217.94L297.99,215.75L299.2,213.43L300.84,211.26L301.87,208.85L303.05,206.48L303.76,203.95L302.47,200.85L306.05,199.13L307.78,196.85L308.34,194.25L309.35,191.75L310.08,189.17L310.4,186.52L310.81,183.89L311.39,181.28L311.03,178.54L312.29,176.01L312.51,173.34L313.03,170.7L313.92,168.07L314.39,165.39L314.27,162.69L313.79,160" style="vector-effect: non-scaling-stroke; fill: none; stroke: rgb(239, 85, 59); stroke-opacity: 1; stroke-width: 2px; opacity: 1;"/></g><g class="points"/><g class="text"/></g><g class="trace scatter trace7b4630" style="stroke-miterlimit: 2; opacity: 1;"><g class="fills"/><g class="errorbars"/><g class="lines"><path class="js-line" d="M292.72,160L296.16,157.62L298.95,155.15L298.64,152.73L299.49,150.25L297.51,147.97L297.46,145.55L297.22,143.15L296.46,140.82L293.35,138.88L295.13,136.17L294.32,133.89L293.41,131.64L292.55,129.4L291.48,127.22L291.08,124.88L289.33,122.91L288.35,120.76L285.37,119.26L286.29,116.52L284.32,114.75L282.04,113.15L280.6,111.28L279.34,109.34L277.49,107.69L276.38,105.73L272.8,104.98L272.86,102.49L270.68,101.15L269.73,99.18L267.12,98.16L265.21,96.78L262.25,96.11L261.23,94.26L258.79,93.36L256.6,92.36L254.92,91.03L253.62,89.45L250.83,89.04L248.19,88.59L247,87L244.02,86.96L241.52,86.6L240.24,85.18L237.29,85.36L235.71,84.29L233.27,84.12L231.39,83.45L228.72,83.68L227.5,82.35L224.53,83.09L222.35,83L220.16,83L218.07,82.94L216.02,82.89L214.34,82.39L211.71,83.34L209.52,83.75L207.47,84.03L206.16,83.17L203.94,83.89L201.4,85.32L199.69,85.36L197.48,86.43L195.3,87.62L194.24,86.58L192.04,88.04L189.95,89.43L188.71,88.95L186.65,90.57L184.73,92.05L183.72,91.12L182.37,91.16L180.46,93.07L178.99,93.78L177.46,94.86L175.63,97.3L174.45,97.39L172.87,99.47L171.38,101.47L170.33,101.41L169.28,101.39L168.02,102.96L166.78,104.82L165.88,104.04L164.78,105.31L163.63,108.09L162.77,107.22L161.79,108.67L160.82,112.74L160,114.17L159.23,115.84L158.53,117.78L157.86,119.22L157.19,119.87L156.41,118.94L155.73,119.35L155.22,121.1L154.84,123.27L154.46,125.03L153.93,125.58L153.63,127.22L152.93,126.72L153.11,130.14L152.53,130.05L151.89,129.72L151.13,129.07L151.5,132.19L151.11,132.63L151.04,133.97L151.4,136.38L151.75,138.52L151.39,138.68L151.45,139.85L151.03,139.84L150.89,140.46L151.1,141.76L151.74,143.79L151.27,143.58L151.7,145.02L151.71,145.64L150.52,144.23L152.01,147.21L153.01,149.23L152.48,148.86L151.93,148.47L151.65,148.51L152.37,149.87L152.18,149.99L152.41,150.62L153.49,152.24L152.94,151.88L152.98,152.21L155.01,154.65L154.61,154.42L154.29,154.29L153.79,154L155.03,155.36L155.39,155.85L154.92,155.58L155.46,156.19L156.15,156.88L155.85,156.76L155.54,156.64L155.64,156.83L154.56,156.19L156.73,157.8L157.08,158.1L156.86,158.04L156.58,157.95L157.45,158.53L156.2,157.89L156.51,158.14L156.76,158.35L156.53,158.31L157.02,158.61L158.81,159.47L157.12,158.78L158.65,159.45L158.68,159.49L157.97,159.26L158.26,159.4L160,160L158.34,159.49L155.82,158.8L158.24,159.53L158.51,159.63L156.75,159.25L157.47,159.46L158.71,159.75L158.28,159.7L159.29,159.89L158.76,159.83L159.73,159.97L158.13,159.8L159.23,159.93L157.84,159.85L159.52,159.98L159.37,159.98L158.71,159.98L157.63,160L159,160.02L157.14,160.1L157.19,160.15L157.86,160.15L158.48,160.13L157.68,160.24L159.46,160.07L159.16,160.12L159.07,160.15L158.32,160.3L157.88,160.41L158.46,160.33L157.6,160.55L158.11,160.47L157.29,160.73L157.4,160.75L157.13,160.88L157.21,160.91L157.13,160.99L156.89,161.13L156.87,161.2L155.99,161.62L156.75,161.38L157.47,161.13L157.11,161.35L156.66,161.63L155.91,162.08L156.09,162.08L156.57,161.9L156.63,161.94L156.09,162.35L155.74,162.66L156,162.6L155.9,162.76L155.91,162.87L155.73,163.1L155.79,163.18L154.84,164.04L155.48,163.66L155.12,164.09L155.56,163.86L154.57,164.89L154.19,165.42L155.09,164.75L155.38,164.62L154.92,165.26L155.51,164.82L153.87,166.81L153.6,167.37L153.12,168.2L151.94,169.95L152.03,170.2L151.97,170.65L152.04,170.96L151.59,172.01L151.83,172.11L151.8,172.62L151.74,173.22L151.76,173.71L151.88,174.06L151.99,174.45L151.79,175.45L153.31,173.12L153.17,174L153.52,173.9L153.16,175.37L152.64,177.33L152.57,178.4L152.6,179.26L152.53,180.53L152.98,180.39L152.74,182.33L152.75,183.7L153.25,183.55L153.12,185.66L153.73,185.15L153.91,186.37L153.55,190.36L154.09,190.42L154.53,191.05L154.61,194.05L155.25,193.8L155.56,196.13L155.84,199.54L156.67,198.03L157.15,200.7L157.9,200.02L158.55,201.59L159.26,202.18L160,202.92L160.75,202.76L161.53,203.95L162.38,205.37L163.51,210.15L164.4,210.26L165.61,213.41L166.62,213.94L167.86,215.93L169.26,218.45L170.25,218.11L171.72,220.27L172.91,220.74L174.51,222.84L175.32,221.46L176.84,222.83L178.63,224.98L180.39,226.69L181.39,225.82L183.13,227.17L185.29,229.49L188.09,233.17L189.37,232.69L192.16,235.77L192.7,233.45L194.86,234.76L196.42,234.67L198.61,235.77L201.09,237.28L202.8,237.22L204.87,237.72L206.72,237.75L208.66,237.87L210.09,237.14L212.7,238.14L214.02,237.15L216.96,238.4L218.37,237.46L221.45,238.65L223.16,238L225.34,237.87L227.74,237.93L230.05,237.79L231.69,236.88L234.22,236.85L235.66,235.66L239.36,236.64L241.05,235.58L242.46,234.25L245.71,234.5L247.66,233.56L249.24,232.27L252.15,232L255.4,231.89L257.59,230.9L259.48,229.66L260.58,227.84L260.67,225.37L262.15,223.83L265.03,223.11L268.82,222.83L268.46,220.12L269.36,218.15L271.16,216.64L272.89,215.06L273.78,213.06L276.65,211.94L277.92,210.06L279.29,208.19L280.37,206.21L281.89,204.36L282.79,202.28L283.86,200.25L284.48,198.06L283.08,195.29L286.57,193.91L288.21,191.97L288.69,189.71L289.62,187.55L290.28,185.32L290.54,183.02L290.89,180.73L291.41,178.47L291.01,176.09L292.23,173.9L292.42,171.59L292.91,169.29L293.78,167.01L294.23,164.69L294.1,162.34L293.62,160" style="vector-effect: non-scaling-stroke; fill: none; stroke: rgb(0, 204, 150); stroke-opacity: 1; stroke-width: 2px; opacity: 1;"/></g><g class="points"/><g class="text"/></g></g></g><g class="polarsublayer angular-line"><path d="M160,0A160,160 0,1,0 -160,-1.9594348786357652e-14A160,160 0,1,0 160,3.9188697572715304e-14Z" transform="translate(308,260)" stroke-width="1" style="fill: none; stroke: rgb(255, 255, 255); stroke-opacity: 1;"/></g><g class="polarsublayer radial-line"><line x1="0" y1="0" x2="160" y2="0" transform="translate(308,260)" stroke-width="1" style="fill: none; stroke: rgb(255, 255, 255); stroke-opacity: 1;"/></g><g class="polarsublayer angular-axis"><g class="angularaxistick"><text text-anchor="start" x="2.9000000000000004" y="4.199999999999999" transform="translate(468,260)" style="font-family: 'Open Sans', verdana, arial, sans-serif; font-size: 12px; fill: rgb(42, 63, 95); fill-opacity: 1; white-space: pre;">0°</text></g><g class="angularaxistick"><text text-anchor="start" x="2.050609665440988" y="-0.7778174593052025" transform="translate(421.1370849898476,146.8629150101524)" style="font-family: 'Open Sans', verdana, arial, sans-serif; font-size: 12px; fill: rgb(42, 63, 95); fill-opacity: 1; white-space: pre;">45°</text></g><g class="angularaxistick"><text text-anchor="middle" x="1.7757378587636624e-16" y="-5.300000000000001" transform="translate(308,100)" style="font-family: 'Open Sans', verdana, arial, sans-serif; font-size: 12px; fill: rgb(42, 63, 95); fill-opacity: 1; white-space: pre;">90°</text></g><g class="angularaxistick"><text text-anchor="end" x="-2.0506096654409878" y="-0.7778174593052039" transform="translate(194.8629150101524,146.8629150101524)" style="font-family: 'Open Sans', verdana, arial, sans-serif; font-size: 12px; fill: rgb(42, 63, 95); fill-opacity: 1; white-space: pre;">135°</text></g><g class="angularaxistick"><text text-anchor="end" x="-2.9000000000000004" y="4.199999999999998" transform="translate(148,260)" style="font-family: 'Open Sans', verdana, arial, sans-serif; font-size: 12px; fill: rgb(42, 63, 95); fill-opacity: 1; white-space: pre;">180°</text></g><g class="angularaxistick"><text text-anchor="end" x="-2.0506096654409887" y="13.505739520663056" transform="translate(194.86291501015236,373.1370849898476)" style="font-family: 'Open Sans', verdana, arial, sans-serif; font-size: 12px; fill: rgb(42, 63, 95); fill-opacity: 1; white-space: pre;">225°</text></g><g class="angularaxistick"><text text-anchor="middle" x="-5.327213576290987e-16" y="14.9" transform="translate(307.99999999999994,420)" style="font-family: 'Open Sans', verdana, arial, sans-serif; font-size: 12px; fill: rgb(42, 63, 95); fill-opacity: 1; white-space: pre;">270°</text></g><g class="angularaxistick"><text text-anchor="start" x="2.0506096654409878" y="13.50573952066306" transform="translate(421.1370849898476,373.1370849898476)" style="font-family: 'Open Sans', verdana, arial, sans-serif; font-size: 12px; fill: rgb(42, 63, 95); fill-opacity: 1; white-space: pre;">315°</text></g></g><g class="polarsublayer radial-axis" transform="translate(308,260)"><g class="xtick"><text text-anchor="start" x="0" y="14.9" transform="translate(18.52,0) rotate(90,0,8.9)" style="font-family: 'Open Sans', verdana, arial, sans-serif; font-size: 12px; fill: rgb(42, 63, 95); fill-opacity: 1; white-space: pre;">−3</text></g><g class="xtick"><text text-anchor="start" x="0" y="14.9" transform="translate(40.42,0) rotate(90,0,8.9)" style="font-family: 'Open Sans', verdana, arial, sans-serif; font-size: 12px; fill: rgb(42, 63, 95); fill-opacity: 1; white-space: pre;">−2.5</text></g><g class="xtick"><text text-anchor="start" x="0" y="14.9" transform="translate(62.32,0) rotate(90,0,8.9)" style="font-family: 'Open Sans', verdana, arial, sans-serif; font-size: 12px; fill: rgb(42, 63, 95); fill-opacity: 1; white-space: pre;">−2</text></g><g class="xtick"><text text-anchor="start" x="0" y="14.9" transform="translate(84.22,0) rotate(90,0,8.9)" style="font-family: 'Open Sans', verdana, arial, sans-serif; font-size: 12px; fill: rgb(42, 63, 95); fill-opacity: 1; white-space: pre;">−1.5</text></g><g class="xtick"><text text-anchor="start" x="0" y="14.9" transform="translate(106.12,0) rotate(90,0,8.9)" style="font-family: 'Open Sans', verdana, arial, sans-serif; font-size: 12px; fill: rgb(42, 63, 95); fill-opacity: 1; white-space: pre;">−1</text></g><g class="xtick"><text text-anchor="start" x="0" y="14.9" transform="translate(128.02,0) rotate(90,0,8.9)" style="font-family: 'Open Sans', verdana, arial, sans-serif; font-size: 12px; fill: rgb(42, 63, 95); fill-opacity: 1; white-space: pre;">−0.5</text></g><g class="xtick"><text text-anchor="start" x="0" y="14.9" transform="translate(149.92,0) rotate(90,0,8.9)" style="font-family: 'Open Sans', verdana, arial, sans-serif; font-size: 12px; fill: rgb(42, 63, 95); fill-opacity: 1; white-space: pre;">0</text></g></g></g></g><g class="ternarylayer"/><g class="geolayer"/><g class="funnelarealayer"/><g class="pielayer"/><g class="treemaplayer"/><g class="sunburstlayer"/><g class="glimages"/><defs id="topdefs-9d7134"><g class="clips"/><clipPath id="legend9d7134"><rect width="143" height="105" x="0" y="0"/></clipPath></defs><g class="layer-above"><g class="imagelayer"/><g class="shapelayer"/></g><g class="infolayer"><g class="legend" pointer-events="all" transform="translate(545.12,100)"><rect class="bg" shape-rendering="crispEdges" style="stroke: rgb(68, 68, 68); stroke-opacity: 1; fill: rgb(255, 255, 255); fill-opacity: 1; stroke-width: 0px;" width="143" height="105" x="0" y="0"/><g class="scrollbox" transform="" clip-path="url('#legend9d7134')"><g class="groups"><g class="traces" transform="translate(0,14.5)" style="opacity: 1;"><text class="legendtext" text-anchor="start" x="40" y="4.680000000000001" style="font-family: 'Open Sans', verdana, arial, sans-serif; font-size: 12px; fill: rgb(42, 63, 95); fill-opacity: 1; white-space: pre;">Measurement</text><g class="layers" style="opacity: 1;"><g class="legendfill"/><g class="legendlines"><path class="js-line" d="M5,0h30" style="fill: none; stroke: rgb(99, 110, 250); stroke-opacity: 1; stroke-width: 2px;"/></g><g class="legendsymbols"><g class="legendpoints"/></g></g><rect class="legendtoggle" x="0" y="-9.5" width="137.21875" height="19" style="fill: rgb(0, 0, 0); fill-opacity: 0;"/></g><g class="traces" transform="translate(0,33.5)" style="opacity: 1;"><text class="legendtext" text-anchor="start" x="40" y="4.680000000000001" style="font-family: 'Open Sans', verdana, arial, sans-serif; font-size: 12px; fill: rgb(42, 63, 95); fill-opacity: 1; white-space: pre;">Upper Tolerance</text><g class="layers" style="opacity: 1;"><g class="legendfill"/><g class="legendlines"><path class="js-line" d="M5,0h30" style="fill: none; stroke: rgb(239, 85, 59); stroke-opacity: 1; stroke-width: 2px;"/></g><g class="legendsymbols"><g class="legendpoints"/></g></g><rect class="legendtoggle" x="0" y="-9.5" width="137.21875" height="19" style="fill: rgb(0, 0, 0); fill-opacity: 0;"/></g><g class="traces" transform="translate(0,52.5)" style="opacity: 1;"><text class="legendtext" text-anchor="start" x="40" y="4.680000000000001" style="font-family: 'Open Sans', verdana, arial, sans-serif; font-size: 12px; fill: rgb(42, 63, 95); fill-opacity: 1; white-space: pre;">Lower Tolerance</text><g class="layers" style="opacity: 1;"><g class="legendfill"/><g class="legendlines"><path class="js-line" d="M5,0h30" style="fill: none; stroke: rgb(0, 204, 150); stroke-opacity: 1; stroke-width: 2px;"/></g><g class="legendsymbols"><g class="legendpoints"/></g></g><rect class="legendtoggle" x="0" y="-9.5" width="137.21875" height="19" style="fill: rgb(0, 0, 0); fill-opacity: 0;"/></g><g class="traces" transform="translate(0,71.5)" style="opacity: 1;"><text class="legendtext" text-anchor="start" x="40" y="4.680000000000001" style="font-family: 'Open Sans', verdana, arial, sans-serif; font-size: 12px; fill: rgb(42, 63, 95); fill-opacity: 1; white-space: pre;">Beamwidth</text><g class="layers" style="opacity: 0.8;"><g class="legendfill"/><g class="legendlines"/><g class="legendsymbols"><g class="legendpoints"><path class="legendundefined" d="M6,6H-6V-6H6Z" transform="translate(20,0)" style="stroke-width: 0.5px; fill: rgb(171, 99, 250); fill-opacity: 1; stroke: rgb(229, 236, 246); stroke-opacity: 1;"/></g></g></g><rect class="legendtoggle" x="0" y="-9.5" width="137.21875" height="19" style="fill: rgb(0, 0, 0); fill-opacity: 0;"/></g><g class="traces" transform="translate(0,90.5)" style="opacity: 1;"><text class="legendtext" text-anchor="start" x="40" y="4.680000000000001" style="font-family: 'Open Sans', verdana, arial, sans-serif; font-size: 12px; fill: rgb(42, 63, 95); fill-opacity: 1; white-space: pre;">Bandwidth</text><g class="layers" style="opacity: 0.6;"><g class="legendfill"/><g class="legendlines"/><g class="legendsymbols"><g class="legendpoints"><path class="legendundefined" d="M6,6H-6V-6H6Z" transform="translate(20,0)" style="stroke-width: 0.5px; fill: rgb(255, 161, 90); fill-opacity: 1; stroke: rgb(229, 236, 246); stroke-opacity: 1;"/></g></g></g><rect class="legendtoggle" x="0" y="-9.5" width="137.21875" height="19" style="fill: rgb(0, 0, 0); fill-opacity: 0;"/></g></g></g><rect class="scrollbar" rx="20" ry="3" width="0" height="0" style="fill: rgb(128, 139, 164); fill-opacity: 1;" x="0" y="0"/></g><g class="g-gtitle"><text class="gtitle" x="35" y="50" text-anchor="start" dy="0em" style="font-family: 'Open Sans', verdana, arial, sans-serif; font-size: 17px; fill: rgb(42, 63, 95); opacity: 1; font-weight: normal; white-space: pre;">Radiation Pattern</text></g><g class="g-polartitle"/></g></svg>